<svg width="100" height="100" viewBox="0 0 100 100" fill="none" xmlns="http://www.w3.org/2000/svg">
<g clip-path="url(#clip0_157_2)">
<path d="M49.5766 0.0282593C24.2516 0.0282593 25.8328 11.0537 25.8328 11.0537L25.8609 22.4765H50.0281V25.9059H16.2621C16.2621 25.9059 0.0566406 24.0608 0.0566406 49.7137C0.0566406 75.3675 14.2012 74.4577 14.2012 74.4577H22.6426V62.5534C22.6426 62.5534 22.1875 48.3534 36.5613 48.3534H60.5309C60.5309 48.3534 73.9977 48.5718 73.9977 35.2871V13.3216C73.9977 13.3216 76.043 0.0282593 49.5766 0.0282593ZM36.2508 7.70983C36.8219 7.70931 37.3874 7.82186 37.9152 8.04102C38.4429 8.26018 38.9224 8.58167 39.3262 8.98707C39.73 9.39247 40.0502 9.87384 40.2685 10.4036C40.4868 10.9334 40.5989 11.5012 40.5984 12.0745C40.5989 12.6479 40.4868 13.2157 40.2685 13.7454C40.0502 14.2752 39.73 14.7566 39.3262 15.162C38.9224 15.5674 38.4429 15.8889 37.9152 16.108C37.3874 16.3272 36.8219 16.4398 36.2508 16.4392C35.6797 16.4398 35.1141 16.3272 34.5864 16.108C34.0587 15.8889 33.5792 15.5674 33.1754 15.162C32.7716 14.7566 32.4513 14.2752 32.233 13.7454C32.0147 13.2157 31.9026 12.6479 31.9031 12.0745C31.9026 11.5012 32.0147 10.9334 32.233 10.4036C32.4513 9.87384 32.7716 9.39247 33.1754 8.98707C33.5792 8.58167 34.0587 8.26018 34.5864 8.04102C35.1141 7.82186 35.6797 7.70931 36.2508 7.70983Z" fill="url(#paint0_linear_157_2)"/>
<path d="M50.2958 99.6573C75.6208 99.6573 74.0395 88.6318 74.0395 88.6318L74.0114 77.2094H49.8438V73.78H83.6098C83.6098 73.78 99.8153 75.6251 99.8153 49.9714C99.8153 24.3181 85.6708 25.2279 85.6708 25.2279H77.2294V37.1318C77.2294 37.1318 77.6844 51.3318 63.3106 51.3318H39.3411C39.3411 51.3318 25.8743 51.1134 25.8743 64.3985V86.3643C25.8743 86.3643 23.8294 99.6573 50.2954 99.6573H50.2958ZM63.6216 91.9765C63.0505 91.977 62.4849 91.8645 61.9572 91.6453C61.4295 91.4261 60.95 91.1047 60.5461 90.6992C60.1423 90.2938 59.8221 89.8125 59.6038 89.2827C59.3855 88.7529 59.2734 88.1851 59.2739 87.6118C59.2733 87.0384 59.3854 86.4706 59.6037 85.9407C59.822 85.4109 60.1422 84.9295 60.546 84.5241C60.9498 84.1186 61.4293 83.7971 61.9571 83.5779C62.4848 83.3587 63.0504 83.2462 63.6216 83.2467C64.1926 83.2462 64.7582 83.3587 65.2859 83.5779C65.8136 83.797 66.2931 84.1185 66.697 84.5239C67.1008 84.9293 67.421 85.4107 67.6393 85.9405C67.8576 86.4703 67.9697 87.0381 67.9692 87.6114C67.9697 88.1847 67.8576 88.7525 67.6393 89.2823C67.421 89.8121 67.1008 90.2934 66.697 90.6989C66.2931 91.1043 65.8136 91.4257 65.2859 91.6449C64.7582 91.8641 64.1926 91.977 63.6216 91.9765Z" fill="url(#paint1_linear_157_2)"/>
</g>
<defs>
<linearGradient id="paint0_linear_157_2" x1="958.733" y1="896.132" x2="5921.62" y2="5790.32" gradientUnits="userSpaceOnUse">
<stop stop-color="#387EB8"/>
<stop offset="1" stop-color="#366994"/>
</linearGradient>
<linearGradient id="paint1_linear_157_2" x1="1440.88" y1="1556.99" x2="6769.49" y2="6574.62" gradientUnits="userSpaceOnUse">
<stop stop-color="#FFE052"/>
<stop offset="1" stop-color="#FFC331"/>
</linearGradient>
<clipPath id="clip0_157_2">
<rect width="100" height="100" fill="white"/>
</clipPath>
</defs>
</svg>
