<svg width="100" height="101" viewBox="0 0 100 101" fill="none" xmlns="http://www.w3.org/2000/svg">
<g clip-path="url(#clip0_172_4)">
<path d="M100 51.2512C100 62.4212 96.82 72.4662 90.46 81.3862C84.105 90.3062 75.89 96.4762 65.82 99.9012C64.65 100.126 63.79 99.9712 63.25 99.4362C62.9836 99.1771 62.7737 98.8656 62.6334 98.5215C62.4931 98.1773 62.4256 97.8078 62.435 97.4362V83.3512C62.435 79.0362 61.305 75.8762 59.05 73.8762C61.3028 73.6502 63.5345 73.2489 65.725 72.6762C67.695 72.1412 69.735 71.2762 71.84 70.0762C73.8638 68.9438 75.6539 67.4371 77.115 65.6362C78.525 63.8762 79.675 61.5412 80.565 58.6262C81.455 55.7112 81.9 52.3662 81.9 48.5862C81.9 43.2012 80.185 38.6162 76.76 34.8362C78.36 30.7862 78.19 26.2512 76.235 21.2212C75.02 20.8212 73.265 21.0712 70.965 21.9562C68.8787 22.7399 66.8728 23.7228 64.975 24.8912L62.5 26.4912C58.4349 25.3323 54.2271 24.7499 50 24.7612C45.7727 24.7515 41.5649 25.3356 37.5 26.4962C36.5957 25.87 35.6737 25.2697 34.735 24.6962C33.585 23.9812 31.77 23.1262 29.295 22.1262C26.825 21.1262 24.955 20.8262 23.695 21.2262C21.79 26.2512 21.635 30.7862 23.245 34.8362C19.815 38.6162 18.095 43.2012 18.095 48.5862C18.095 52.3662 18.545 55.7012 19.435 58.5962C20.325 61.4862 21.465 63.8212 22.85 65.6012C24.2862 67.4209 26.0667 68.9398 28.09 70.0712C30.195 71.2712 32.24 72.1412 34.21 72.6712C36.185 73.2112 38.41 73.6112 40.885 73.8762C39.15 75.4762 38.085 77.7712 37.695 80.7512C36.7628 81.2029 35.7788 81.5387 34.765 81.7512C33.5433 81.991 32.2999 82.1033 31.055 82.0862C29.62 82.0862 28.205 81.6062 26.79 80.6512C25.38 79.6912 24.175 78.3012 23.175 76.4812C22.3938 75.1048 21.3161 73.9195 20.02 73.0112C18.74 72.1212 17.665 71.5862 16.795 71.4112L15.495 71.2112C14.585 71.2112 13.955 71.3112 13.605 71.5112C13.255 71.7112 13.155 71.9612 13.28 72.2762C13.4271 72.6154 13.6243 72.9306 13.865 73.2112C14.1148 73.5115 14.4002 73.7801 14.715 74.0112L15.165 74.3412C16.125 74.7912 17.065 75.6362 18 76.8812C18.935 78.1262 19.62 79.2612 20.05 80.2812L20.7 81.8162C21.265 83.5062 22.22 84.8762 23.57 85.9212C24.915 86.9712 26.37 87.6362 27.93 87.9212C29.49 88.2112 31 88.3712 32.455 88.3912C33.905 88.4112 35.115 88.3362 36.07 88.1562L37.565 87.8912C37.565 89.5812 37.575 91.5612 37.6 93.8312L37.63 97.4312C37.63 98.2312 37.35 98.9012 36.78 99.4312C36.22 99.9712 35.35 100.126 34.18 99.9012C24.11 96.4762 15.895 90.3012 9.54 81.3862C3.18 72.4662 0 62.4212 0 51.2512C0 41.9512 2.235 33.3812 6.705 25.5262C11.0324 17.822 17.3087 11.3905 24.905 6.87624C32.4775 2.3178 41.1616 -0.0612847 50 0.00123649C58.8401 -0.0622068 67.5261 2.31691 75.1 6.87624C82.6944 11.3912 88.969 17.8226 93.295 25.5262C97.765 33.3762 100 41.9562 100 51.2512Z" fill="white"/>
</g>
<defs>
<clipPath id="clip0_172_4">
<rect width="100" height="100.001" fill="white"/>
</clipPath>
</defs>
</svg>
