<svg width="101" height="100" viewBox="0 0 101 100" fill="none" xmlns="http://www.w3.org/2000/svg">
<g clip-path="url(#clip0_169_10)">
<path d="M10.0024 89.4922L1 0H99.9183L90.9038 89.478L50.399 99.4318L10.0024 89.4922Z" fill="#E44F26"/>
<path d="M50.4592 91.586L83.4922 83.5884L91.2632 7.55975H50.4592V91.586Z" fill="#F1662A"/>
<path d="M50.4591 40.5601H33.9224L32.7822 29.3847H50.4591V18.4705H19.1243L19.4235 21.4012L22.4923 51.4743H50.4591V40.5601ZM50.4591 68.9032L50.4025 68.9173L36.4858 65.637L35.5963 56.9332H23.0502L24.8009 74.0654L50.4025 80.2728L50.4591 80.2587V68.9032Z" fill="#EBEBEB"/>
<path d="M50.4146 40.5601V51.4743H65.803L64.3555 65.63L50.4146 68.9137V80.2693L76.0363 74.0654L76.2223 72.2223L79.1577 43.4908L79.4649 40.5601H50.4146ZM50.4146 18.4705V29.3847H80.6011L80.8518 26.9342L81.4219 21.4012L81.721 18.4705H50.4146Z" fill="white"/>
</g>
<defs>
<clipPath id="clip0_169_10">
<rect width="100.918" height="99.4318" fill="white"/>
</clipPath>
</defs>
</svg>
