<svg width="101" height="101" viewBox="0 0 101 101" fill="none" xmlns="http://www.w3.org/2000/svg">
<path d="M97.7611 45.9176L54.7017 2.85977C52.2236 0.380078 48.2017 0.380078 45.7197 2.85977L36.7791 11.802L48.1213 23.1441C50.758 22.2543 53.7798 22.8512 55.8806 24.952C57.9923 27.066 58.5845 30.1137 57.6728 32.759L68.6041 43.691C71.2486 42.7793 74.3009 43.3684 76.4119 45.484C79.365 48.4348 79.365 53.2184 76.4119 56.1707C75.7101 56.8728 74.8769 57.4298 73.9598 57.8098C73.0427 58.1898 72.0597 58.3854 71.067 58.3854C70.0742 58.3854 69.0913 58.1898 68.1742 57.8098C67.2571 57.4298 66.4238 56.8728 65.722 56.1707C64.6677 55.1157 63.9489 53.7723 63.6563 52.3097C63.3637 50.8471 63.5102 49.3307 64.0775 47.9512L53.8838 37.7574L53.8822 64.5863C54.6218 64.9506 55.297 65.4329 55.8814 66.0145C58.833 68.9652 58.833 73.7473 55.8814 76.7043C52.9291 79.6551 48.1439 79.6551 45.1947 76.7043C42.2431 73.7481 42.2431 68.966 45.1947 66.0145C45.9018 65.3062 46.7429 64.7458 47.6689 64.366V37.2887C46.7422 36.9099 45.9008 36.3491 45.1947 35.6395C42.9588 33.4051 42.4205 30.1238 43.5673 27.377L32.3853 16.1949L2.86031 45.7184C1.66915 46.9099 1 48.5257 1 50.2105C1 51.8954 1.66915 53.5112 2.86031 54.7027L45.9205 97.7605C48.4002 100.24 52.4205 100.24 54.9041 97.7605L97.7619 54.9027C98.9528 53.7109 99.6217 52.0949 99.6215 50.41C99.6214 48.7251 98.9522 47.1092 97.7611 45.9176Z" fill="#F34F29"/>
</svg>
