<svg width="101" height="100" viewBox="0 0 101 100" fill="none" xmlns="http://www.w3.org/2000/svg">
<g clip-path="url(#clip0_169_3)">
<path d="M9.14 89.5008L0 0H100.436L91.2873 89.4873L50.1573 99.4421L9.14 89.5008Z" fill="#1572B6"/>
<path d="M50.219 91.5988L83.5995 83.5992L91.4527 7.55444H50.219V91.5988Z" fill="#33A9DC"/>
<path d="M50.219 39.7997H66.9298L68.0839 28.622H50.219V17.7062H81.8857L81.5825 20.635L78.4781 50.7155H50.219V39.7997Z" fill="white"/>
<path d="M50.2938 68.1486L50.2381 68.1628L36.1743 64.8804L35.2749 56.1745H22.5999L24.3684 73.314L50.2363 79.5197L50.2938 79.5055V68.1486Z" fill="#EBEBEB"/>
<path d="M65.856 50.2537L64.3348 64.8717L50.25 68.158V79.5149L76.1388 73.3132L76.3288 71.4688L78.5256 50.2537H65.856Z" fill="white"/>
<path d="M50.2622 17.7062V28.622H19.7588L19.5059 26.1691L18.9306 20.635L18.6284 17.7062H50.2622ZM50.2193 39.8013V50.7171H36.3326L36.0797 48.2642L35.5036 42.7301L35.2022 39.8013H50.2193Z" fill="#EBEBEB"/>
</g>
<defs>
<clipPath id="clip0_169_3">
<rect width="100.436" height="99.4421" fill="white"/>
</clipPath>
</defs>
</svg>
