<svg width="43" height="43" viewBox="0 0 43 43" fill="none" xmlns="http://www.w3.org/2000/svg">
<path d="M13.5789 12.9V21.5L0 10.75L13.5789 0V8.6H24.8947C29.6966 8.6 34.3017 10.4121 37.6971 13.6378C41.0925 16.8634 43 21.2383 43 25.8C43 30.3617 41.0925 34.7366 37.6971 37.9622C34.3017 41.1879 29.6966 43 24.8947 43H4.52632V38.7H24.8947C28.4961 38.7 31.95 37.3409 34.4965 34.9217C37.043 32.5025 38.4737 29.2213 38.4737 25.8C38.4737 22.3787 37.043 19.0975 34.4965 16.6783C31.95 14.2591 28.4961 12.9 24.8947 12.9H13.5789Z" fill="black"/>
</svg>
