<svg width="43" height="43" viewBox="0 0 43 43" fill="none" xmlns="http://www.w3.org/2000/svg">
<path d="M42.4682 18.2321L37.6618 16.7988C37.3295 15.6397 36.8725 14.5199 36.2988 13.4592L38.6518 9.05884C38.7401 8.89274 38.7724 8.70263 38.744 8.51673C38.7155 8.33082 38.6279 8.15903 38.4939 8.02685L35.0649 4.58686C34.9326 4.45309 34.7607 4.3655 34.5746 4.3371C34.3885 4.3087 34.1982 4.34099 34.0319 4.4292L29.656 6.76552C28.5837 6.16447 27.4481 5.68377 26.27 5.33219L24.8353 0.587883C24.7746 0.413041 24.6599 0.261943 24.5078 0.15634C24.3557 0.0507366 24.174 -0.00392623 23.9888 0.000219541H19.1394C18.9531 0.00108609 18.7719 0.0613287 18.6222 0.17218C18.4725 0.283032 18.3622 0.438707 18.3072 0.61655L16.8725 5.34653C15.6845 5.69623 14.5393 6.17696 13.4578 6.77985L9.15361 4.45786C8.98735 4.36966 8.79706 4.33736 8.61097 4.36577C8.42488 4.39417 8.25291 4.48176 8.1206 4.61553L4.63419 8.01251C4.50029 8.1447 4.41262 8.31649 4.38419 8.50239C4.35576 8.6883 4.38808 8.87841 4.47637 9.04451L6.80064 13.3445C6.19814 14.4203 5.71695 15.5596 5.36591 16.7415L0.616936 18.1748C0.438919 18.2297 0.28309 18.34 0.17213 18.4895C0.0611693 18.639 0.000867403 18.82 0 19.0061V23.8508C0.000867403 24.0369 0.0611693 24.2179 0.17213 24.3674C0.28309 24.5169 0.438919 24.6272 0.616936 24.6821L5.3946 26.1154C5.74948 27.2776 6.23059 28.3975 6.82934 29.4551L4.47637 33.9557C4.38808 34.1218 4.35576 34.3119 4.38419 34.4978C4.41262 34.6837 4.50029 34.8555 4.63419 34.9877L8.06321 38.4134C8.19553 38.5471 8.36749 38.6347 8.55358 38.6631C8.73967 38.6915 8.92996 38.6592 9.09622 38.571L13.5296 36.206C14.5783 36.7714 15.6845 37.2231 16.8294 37.5534L18.2642 42.3837C18.3192 42.5615 18.4295 42.7172 18.5792 42.828C18.7288 42.9389 18.91 42.9991 19.0963 43H23.9457C24.132 42.9991 24.3132 42.9389 24.4629 42.828C24.6126 42.7172 24.7229 42.5615 24.7779 42.3837L26.2126 37.539C27.3477 37.207 28.4443 36.7554 29.4838 36.1917L33.9458 38.571C34.1121 38.6592 34.3024 38.6915 34.4885 38.6631C34.6746 38.6347 34.8465 38.5471 34.9788 38.4134L38.4079 34.9877C38.5418 34.8555 38.6294 34.6837 38.6579 34.4978C38.6863 34.3119 38.654 34.1218 38.5657 33.9557L36.184 29.5124C36.7541 28.4699 37.2111 27.3696 37.547 26.2301L42.3821 24.7968C42.5601 24.7418 42.7159 24.6316 42.8269 24.4821C42.9378 24.3326 42.9981 24.1516 42.999 23.9654V19.0778C43.0075 18.8996 42.9612 18.723 42.8663 18.5718C42.7714 18.4207 42.6325 18.3021 42.4682 18.2321ZM21.5641 29.3834C20.0034 29.3834 18.4777 28.9211 17.18 28.0548C15.8824 27.1886 14.871 25.9574 14.2737 24.5169C13.6764 23.0764 13.5202 21.4914 13.8247 19.9622C14.1291 18.4329 14.8807 17.0283 15.9843 15.9258C17.0878 14.8233 18.4939 14.0725 20.0246 13.7683C21.5553 13.4641 23.1419 13.6202 24.5838 14.2169C26.0257 14.8136 27.2582 15.824 28.1252 17.1204C28.9923 18.4168 29.4551 19.9409 29.4551 21.5001C29.4551 23.5909 28.6237 25.596 27.1439 27.0744C25.664 28.5528 23.6569 29.3834 21.5641 29.3834Z" fill="black"/>
</svg>
